<svg width="67" height="49" viewBox="0 0 67 49" fill="none" xmlns="http://www.w3.org/2000/svg">
<path d="M66.5166 9.88373L56.9709 0.509165C55.876 -0.566055 54.0285 0.173159 54.0285 1.68519V7.69969H6.12865C4.24687 7.69969 2.70723 9.21172 2.70723 11.0598C2.70723 12.9078 4.24687 14.4198 6.12865 14.4198H54.0285V20.4343C54.0285 21.9464 55.876 22.6856 56.9367 21.6103L66.4824 12.2358C67.1667 11.5974 67.1667 10.5221 66.5166 9.88373Z" fill="#292864"/>
<path d="M60.8714 34.5802H12.9715V28.5657C12.9715 27.0536 11.124 26.3144 10.0633 27.3897L0.517571 36.7642C-0.166712 37.4026 -0.166712 38.4779 0.483357 39.1163L10.0291 48.4908C11.124 49.5661 12.9715 48.8268 12.9715 47.3148V41.3003H60.8714C62.7531 41.3003 64.2928 39.7883 64.2928 37.9402C64.2928 36.0922 62.7531 34.5802 60.8714 34.5802Z" fill="#CB222B"/>
</svg>
